HIERARCHY
ROOT root
{
	OFFSET 0.000000 0.000000 0.000000
	CHANNELS 6 Xposition Yposition Zposition Zrotation Yrotation Xrotation
	JOINT lhip
	{
		OFFSET 0.058581 -0.082280 -0.017664
		CHANNELS 3 Zrotation Yrotation Xrotation
		JOINT lknee
		{
			OFFSET 0.043451 -0.386469 0.008037
			CHANNELS 3 Zrotation Yrotation Xrotation
			JOINT lankle
			{
				OFFSET -0.014790 -0.426874 -0.037428
				CHANNELS 3 Zrotation Yrotation Xrotation
				JOINT ltoe
				{
					OFFSET 0.041054 -0.060286 0.122042
					CHANNELS 3 Zrotation Yrotation Xrotation
					End Site
					{
						OFFSET 0.000000 0.000000 0.000000
					}
				}
			}
		}
	}
	JOINT rhip
	{
		OFFSET -0.060310 -0.090513 -0.013543
		CHANNELS 3 Zrotation Yrotation Xrotation
		JOINT rknee
		{
			OFFSET -0.043257 -0.383688 -0.004843
			CHANNELS 3 Zrotation Yrotation Xrotation
			JOINT rankle
			{
				OFFSET 0.019056 -0.420046 -0.034562
				CHANNELS 3 Zrotation Yrotation Xrotation
				JOINT rtoe
				{
					OFFSET -0.034840 -0.062106 0.130323
					CHANNELS 3 Zrotation Yrotation Xrotation
					End Site
					{
						OFFSET 0.000000 0.000000 0.000000
					}
				}
			}
		}
	}
	JOINT lowerback
	{
		OFFSET 0.004439 0.124404 -0.038385
		CHANNELS 3 Zrotation Yrotation Xrotation
		JOINT upperback
		{
			OFFSET 0.004488 0.137956 0.026820
			CHANNELS 3 Zrotation Yrotation Xrotation
			JOINT chest
			{
				OFFSET -0.002265 0.056032 0.002855
				CHANNELS 3 Zrotation Yrotation Xrotation
				JOINT lowerneck
				{
					OFFSET -0.013390 0.211636 -0.033468
					CHANNELS 3 Zrotation Yrotation Xrotation
					JOINT upperneck
					{
						OFFSET 0.010113 0.088937 0.050410
						CHANNELS 3 Zrotation Yrotation Xrotation
						End Site
						{
							OFFSET 0.000000 0.000000 0.000000
						}
					}
				}
				JOINT lclavicle
				{
					OFFSET 0.071702 0.114000 -0.018898
					CHANNELS 3 Zrotation Yrotation Xrotation
					JOINT lshoulder
					{
						OFFSET 0.122921 0.045205 -0.019046
						CHANNELS 3 Zrotation Yrotation Xrotation
						JOINT lelbow
						{
							OFFSET 0.255332 -0.015649 -0.022946
							CHANNELS 3 Zrotation Yrotation Xrotation
							JOINT lwrist
							{
								OFFSET 0.265709 0.012698 -0.007375
								CHANNELS 3 Zrotation Yrotation Xrotation
								End Site
								{
									OFFSET 0.000000 0.000000 0.000000
								}
							}
						}
					}
				}
				JOINT rclavicle
				{
					OFFSET -0.082954 0.112472 -0.023707
					CHANNELS 3 Zrotation Yrotation Xrotation
					JOINT rshoulder
					{
						OFFSET -0.113228 0.046853 -0.008472
						CHANNELS 3 Zrotation Yrotation Xrotation
						JOINT relbow
						{
							OFFSET -0.260127 -0.014369 -0.031269
							CHANNELS 3 Zrotation Yrotation Xrotation
							JOINT rwrist
							{
								OFFSET -0.269108 0.006794 -0.006027
								CHANNELS 3 Zrotation Yrotation Xrotation
								End Site
								{
									OFFSET 0.000000 0.000000 0.000000
								}
							}
						}
					}
				}
			}
		}
	}
}
MOTION
Frames: 13
Frame Time: 0.033333
-0.769482 0.831203 1.007398 43.934341 -5.518435 85.479349 9.545096 3.757492 -5.731388 -0.816476 3.807912 13.927977 -3.765744 3.109381 -8.093138 0.000000 -0.000000 0.000000 -7.794267 -6.634098 -16.175513 -5.050755 -11.472464 31.972501 1.613071 -2.868581 -16.300354 0.000000 -0.000000 0.000000 -1.992721 -0.723104 16.154388 -0.847813 -1.684790 -2.678811 0.254414 0.245298 -0.433688 1.358552 0.277278 -11.097951 -0.429156 -2.645028 11.882920 -14.941071 -1.209722 -10.471294 -61.531521 -24.842551 19.559138 173.458033 -55.375619 -154.082982 20.236673 -14.852966 -29.698524 15.083169 13.149352 -8.915431 63.883228 39.222291 26.297126 -158.171539 58.032966 -148.039544 -4.557026 15.667072 -25.144045 
-0.774452 0.835182 1.010595 44.433995 -5.431193 85.671914 8.950897 3.439751 -5.121900 -0.730509 5.111959 17.567959 -3.018746 4.391968 -9.587502 0.000000 -0.000000 0.000000 -7.433087 -6.350912 -15.469390 -4.977883 -11.727824 29.522140 1.646497 -3.723838 -14.747868 0.000000 -0.000000 0.000000 -1.584762 -0.904351 15.806886 -0.972016 -1.626787 -2.708797 -0.052004 0.074122 -0.246034 1.257794 -0.261955 -11.603051 -0.764139 -2.230761 11.690031 -16.005803 -0.127962 -9.751410 -60.049039 -23.004330 18.758650 174.473516 -56.766584 -155.649909 17.872499 -15.334596 -30.165550 15.789087 12.256263 -8.633804 63.248466 38.591963 26.412649 -158.454112 57.890932 -148.672803 -4.647842 15.645443 -25.388412 
-0.779936 0.839853 1.012379 44.483905 -5.601066 86.350820 8.440234 2.924072 -4.494859 -1.183691 6.101739 20.639356 -2.472869 4.621484 -11.204854 0.000000 -0.000000 0.000000 -7.431932 -5.238701 -15.868894 -5.382827 -12.829301 28.181568 3.015330 -3.633666 -13.862855 0.000000 -0.000000 0.000000 -1.878822 -0.360160 13.949657 -0.264740 -1.219788 -1.440992 -1.152227 -0.006514 0.334384 3.584373 3.004879 -11.993861 -4.072716 -6.078906 10.306225 -16.735805 1.104953 -9.223793 -59.177696 -22.381468 19.813613 174.939081 -59.286165 -157.706208 18.563066 -15.933865 -34.055782 17.521185 10.735251 -10.357769 62.889831 36.482530 29.838556 -156.541961 57.128612 -144.023040 -4.870867 14.325404 -26.435838 
-0.782787 0.845290 1.013517 44.829717 -5.384147 86.568081 8.291511 2.411967 -3.445543 -1.898645 5.452696 23.391588 -2.316817 4.657328 -12.815132 0.000000 -0.000000 0.000000 -7.286719 -5.008520 -15.694218 -4.936660 -12.699884 26.677281 3.268382 -4.330806 -12.714835 0.000000 -0.000000 0.000000 -1.609540 -0.506677 13.370887 -0.135175 -1.147759 -1.353186 -1.289424 -0.283001 0.493338 3.357011 2.387413 -12.067038 -4.488472 -6.200156 9.521838 -17.430790 2.552407 -8.450474 -58.668838 -20.343913 19.410108 177.172078 -61.944002 -160.434958 18.274431 -15.742273 -34.485079 18.125094 9.618021 -10.053898 62.184943 35.205087 29.797003 -158.006605 57.380217 -145.428555 -5.435799 13.976346 -26.256046 
-0.784822 0.850883 1.013362 45.081489 -5.293607 86.572955 7.998787 2.076350 -1.891905 -2.321770 5.068659 25.134304 -3.001037 4.282156 -13.636569 0.000000 -0.000000 0.000000 -7.211479 -4.688060 -15.607875 -4.856833 -12.581705 25.755181 3.351594 -5.085573 -11.800110 0.000000 -0.000000 0.000000 -1.606731 -0.574299 13.276096 -0.014353 -1.074834 -1.402418 -1.374822 -0.605169 0.601394 3.596199 2.745354 -12.852127 -5.081820 -6.142739 9.471026 -17.871378 4.232116 -8.072221 -58.453542 -17.951141 19.094457 179.589427 -64.982892 -163.510023 16.984627 -16.128358 -34.278690 18.869502 8.014017 -9.990178 61.696301 33.807812 30.234539 -159.576944 57.657012 -147.690347 -5.820416 14.599308 -27.237758 
-0.786562 0.858092 1.013213 45.465681 -4.916286 86.557303 8.093965 2.122161 -0.322526 -2.705555 4.103380 25.874311 -3.122166 5.197003 -14.270433 0.000000 -0.000000 0.000000 -7.141527 -4.434358 -15.448979 -4.509136 -12.702532 24.741378 3.418757 -5.744904 -11.332142 0.000000 -0.000000 0.000000 -1.324491 -0.856097 13.007218 0.127617 -1.069950 -1.172173 -1.444508 -0.681069 0.518249 3.315502 2.438635 -13.004713 -4.948269 -6.324398 9.017637 -18.262014 5.259504 -7.157407 -57.997163 -15.665765 18.478366 -176.565090 -69.059303 -167.702657 16.153156 -15.832061 -33.641189 19.543587 6.904689 -9.698957 60.392307 31.502426 29.446804 -161.783473 58.154879 -149.762522 -5.421521 13.787836 -27.667295 
-0.787159 0.866272 1.012462 45.855783 -4.477956 86.862118 8.191411 2.900107 0.772970 -2.362578 3.416478 26.073022 -2.902189 5.966599 -14.859275 0.000000 -0.000000 0.000000 -7.096504 -4.483874 -15.832502 -4.075430 -12.522239 24.050853 3.436489 -6.307148 -10.458062 0.000000 -0.000000 0.000000 -1.060010 -1.377734 12.493902 0.342777 -1.020012 -1.522254 -1.359180 -0.883711 0.720540 2.990100 2.296642 -12.878266 -5.246957 -5.914128 8.661903 -19.058181 6.698578 -6.444839 -57.455258 -13.127968 17.879644 -168.985891 -73.693468 -175.670996 15.617326 -15.595035 -31.462738 20.112100 5.268276 -9.360410 59.388754 29.015091 29.355707 -164.480316 59.389830 -152.902438 -5.519097 13.677536 -28.602665 
-0.786675 0.876354 1.011500 46.212925 -4.229148 86.793066 7.748120 3.418815 2.532488 -1.624963 1.630136 24.805718 -2.723513 6.362227 -15.158909 0.000000 -0.000000 0.000000 -7.359186 -4.675577 -16.067081 -3.839943 -12.225934 23.795344 3.971476 -6.880639 -9.847409 0.000000 -0.000000 0.000000 -0.723063 -1.549213 12.072719 0.376418 -1.014431 -1.274711 -1.324094 -1.197129 0.876379 2.801967 2.099154 -12.715984 -5.527131 -5.817412 8.025100 -20.069274 7.687256 -5.813023 -56.512051 -11.299596 16.810842 -154.159452 -78.691809 170.821706 14.200516 -16.258951 -25.839951 20.738851 4.113875 -9.228154 58.096104 25.979100 28.949684 -167.247978 60.691669 -155.834479 -5.294814 13.491450 -28.909783 
-0.786234 0.888235 1.009861 46.528535 -4.023253 87.034561 7.036144 3.893479 3.688265 -1.272124 -1.984612 22.944707 -2.451449 6.084770 -15.009768 0.000000 -0.000000 0.000000 -7.512657 -4.559983 -17.127384 -4.166067 -11.724574 24.242580 4.430700 -7.508301 -9.211373 0.000000 -0.000000 0.000000 -0.444130 -1.953318 12.000621 0.301195 -0.893240 -1.697188 -1.456397 -1.655737 0.929895 2.806498 2.039858 -12.686620 -5.536374 -5.873180 7.744096 -20.885193 8.803853 -5.569757 -55.619442 -9.299030 15.582757 -122.862284 -82.370841 141.729937 12.538467 -16.416560 -18.858938 21.310997 3.002884 -8.867576 57.150556 22.562988 28.513897 -170.693021 62.442269 -158.935289 -4.292776 13.269677 -29.623517 
-0.786172 0.901577 1.007958 46.846333 -3.620904 87.000281 6.821949 4.036228 5.114889 -1.118315 -4.364477 20.000040 -2.841181 5.910630 -17.176758 0.000000 -0.000000 0.000000 -7.775241 -4.562806 -17.437396 -3.875221 -11.711473 23.874776 4.827514 -8.115492 -8.356050 0.000000 -0.000000 0.000000 -0.143041 -2.367318 12.091888 0.310346 -0.832648 -1.627765 -1.461715 -1.758222 0.766775 2.790803 1.890239 -12.545109 -5.586242 -5.931878 7.379682 -21.704920 9.234838 -4.971852 -54.476027 -7.796672 14.691767 -73.237013 -81.966172 93.565745 9.171577 -18.039665 -12.513076 21.378913 1.886631 -8.129352 56.489302 18.860096 28.022275 -173.984319 64.295686 -162.099911 -3.089071 14.133378 -30.326542 
-0.786597 0.916187 1.005910 47.119850 -3.059743 87.275743 7.228672 4.745138 5.514124 -1.264746 -5.363250 17.414422 -3.529132 6.099559 -17.800473 0.000000 -0.000000 0.000000 -7.840712 -4.492719 -18.058499 -3.606006 -11.487895 23.273978 5.233645 -8.955058 -7.311297 0.000000 -0.000000 0.000000 -0.046179 -2.633478 12.453144 0.528543 -0.580649 -2.336778 -1.220594 -2.127009 0.855077 2.675373 1.544935 -12.461066 -5.351134 -5.971810 6.914691 -22.312424 9.562790 -4.458785 -53.709111 -6.624860 14.115230 -44.994654 -77.582649 66.966989 7.272846 -18.675955 -7.932264 21.543890 0.602557 -7.602608 55.526447 15.414087 27.755834 -178.150519 66.645290 -166.034100 -2.851339 14.343302 -30.829926 
-0.786929 0.934416 1.003494 48.075673 -2.684043 87.396711 7.271318 4.736164 5.304103 -1.606843 -5.246886 15.821330 -3.464065 5.842414 -18.088244 0.000000 -0.000000 0.000000 -8.359761 -5.152921 -18.566964 -3.230637 -11.236371 22.719017 5.386560 -9.562513 -6.286186 0.000000 -0.000000 0.000000 0.278770 -2.632733 12.883977 0.833215 -1.063077 -2.583188 -1.168343 -2.473283 0.919064 2.465489 1.252897 -12.532849 -5.380701 -5.764028 6.546871 -22.940401 9.161146 -3.976522 -52.576860 -6.411971 13.973188 -31.373560 -71.349926 52.538369 5.980155 -18.815739 -6.025743 21.874107 -0.593758 -7.019793 53.975775 12.266315 27.384487 179.193672 69.607541 -168.862443 -1.899182 14.968779 -30.485248 
-0.784514 0.949953 1.003268 47.361040 -2.924686 87.166405 6.253534 5.708798 6.349970 -1.925090 -5.518906 13.795390 -2.378279 6.912062 -19.258166 0.000000 -0.000000 0.000000 -9.082030 -5.548562 -18.565132 -2.680175 -9.818435 21.793999 5.399068 -9.405254 -5.715003 0.000000 -0.000000 0.000000 0.138189 -2.216725 12.973162 0.490115 -1.095022 -2.069486 -1.235353 -2.595866 0.682307 2.181719 1.113808 -11.850679 -4.779027 -5.686486 5.310827 -23.345758 8.747697 -3.462831 -51.569913 -5.541883 13.432485 -25.500149 -66.033108 46.495061 5.097430 -17.816852 -4.476564 22.541305 -1.331268 -6.122746 53.485511 9.525608 27.000382 173.999568 73.540364 -174.194502 -1.645036 13.730831 -27.598718 
